PathFileType	4	(X/Y/Z)	Patient4_TMGait_0pt2_03_left_26.trc.trc
DataRate	CameraRate	NumFrames	NumMarkers	Units	OrigDataRate	OrigDataStartFrame	OrigNumFrames
46.822742474916	46.822742474916	4	33	mm	46.822742474916	18	       141
Frame#	Time	Sacral			L.Shoulder			Chest			R.Shoulder			Neck			R.ASIS			L.ASIS			R.Thigh.Superior			R.Thigh.Lateral			R.Thigh.Inferior			R.Patella			L.Thigh.Superior			L.Thigh.Lateral			L.Thigh.Inferior			L.Patella			L.Shank.Superior			L.Shank.Lateral			L.Shank.Inferior			R.Shank.Superior			R.Shank.Lateral			R.Shank.Inferior			R.Heel			R.Midfoot.Superior			R.Midfoot.Lateral			R.Toe			L.Heel			L.Midfoot.Lateral			L.Midfoot.Superior			L.Toe			L.Elbow			L.Wrist			R.Elbow			R.Wrist			
		X1	Y1	Z1	X2	Y2	Z2	X3	Y3	Z3	X4	Y4	Z4	X5	Y5	Z5	X6	Y6	Z6	X7	Y7	Z7	X8	Y8	Z8	X9	Y9	Z9	X10	Y10	Z10	X11	Y11	Z11	X12	Y12	Z12	X13	Y13	Z13	X14	Y14	Z14	X15	Y15	Z15	X16	Y16	Z16	X17	Y17	Z17	X18	Y18	Z18	X19	Y19	Z19	X20	Y20	Z20	X21	Y21	Z21	X22	Y22	Z22	X23	Y23	Z23	X24	Y24	Z24	X25	Y25	Z25	X26	Y26	Z26	X27	Y27	Z27	X28	Y28	Z28	X29	Y29	Z29	X30	Y30	Z30	X31	Y31	Z31	X32	Y32	Z32	X33	Y33	Z33	

18	54.603071428571	922.632073187132	1012.568818169954	612.297907851786	1051.213646512222	1436.248353033643	393.728443036777	1197.662137851462	1357.159173713676	510.136699379483	1184.227527936312	1434.942211397999	699.773789363977	1089.213611973018	1493.844548082177	545.825907252413	1168.493460827158	932.406426369292	663.350677717414	1087.486483139021	967.413108148764	401.966498730325	1175.478090975766	726.009560686459	622.447357847322	1095.814393548139	620.553945619244	694.080780985507	1147.051969454609	566.134921142389	598.030843032815	1138.073370234182	477.297845030670	601.742196427779	1161.658445905327	779.112733744257	412.246834950337	1093.796978672837	645.137863638672	332.534497400861	1207.671220839272	590.888176278887	383.109235067592	1229.293594180934	523.103754449407	373.410495433543	1205.338246671176	451.201260698044	356.619927082390	1122.606735325251	336.154731116701	293.046782395409	1197.825080440363	221.069905933051	334.032883410614	1097.271929817293	392.460052294168	610.692074109753	1022.484718210003	295.229374981240	678.960406102790	1038.710381538752	200.211050197341	606.478343415265	882.769080663144	45.192471453604	585.631526860817	1056.656007026837	95.729254809065	610.697590568140	970.356265663668	36.997228402893	654.599515450573	1177.756119373707	41.438498905746	630.618905595148	1091.286520141270	50.070373962450	355.384014093194	1165.290503353598	53.501805554229	275.339569604681	1244.890395369734	121.015817334766	301.822220378180	1374.356981688607	80.230252370487	271.047788940282	843.827943175756	1148.631717765399	347.032190138846	765.000411343947	906.256983831012	412.070332047826	1381.719513706409	1167.740283028801	813.918301331664	1622.569434557829	1219.020317144021	741.913224977786	
19	54.624428571429	923.056288853845	1012.387450110716	610.198750835179	1050.291939520447	1436.025019181373	391.401704404522	1197.374111333908	1356.844117815562	506.963216620859	1184.857623725774	1434.547506398004	696.497245222339	1089.209801774394	1493.535128096866	543.374785639822	1168.914362533967	932.111798697643	660.789743313656	1087.247832039470	966.665900603233	399.513420113638	1173.972682047095	725.356914623638	620.541249744774	1093.600188593105	620.617309413634	692.915551000309	1143.982805722736	565.528763507996	597.067583190504	1134.096620488580	476.925588314196	601.135887435496	1159.257356647219	775.861718670557	409.288849801639	1087.947582366134	642.401129829791	331.550607414859	1201.544618679367	587.261341635907	381.144494910710	1222.000067535172	520.656007175964	372.649927335943	1200.228467048621	449.207205046270	355.944320083894	1120.709612744528	331.624826584176	292.908494219001	1199.168037724608	218.815561431185	334.433755442690	1093.493425015740	392.268243741126	610.218430700577	1018.544365430533	295.267425489717	678.700042087815	1034.580905598818	200.091184459559	606.350073318272	878.441423716860	45.108302092429	585.686730388244	1052.333693666026	95.703006265167	610.721741271904	966.035983467354	36.923629378499	654.652535088833	1173.453360875456	41.425654172617	630.638739819086	1096.919370021878	45.806546746052	356.075720859911	1171.339926197597	50.082936498369	276.427463429446	1249.418314632742	119.299716930012	303.023983696016	1379.912516140980	80.760575241064	273.383655317251	842.499072339727	1148.623087714381	348.104241148749	763.146084895705	907.016842641814	416.271325209662	1388.122228691758	1171.175393945242	806.102039258589	1625.156827021576	1234.034339299681	731.161821341198	
20	54.645785714286	923.574822611479	1011.763136677571	607.696485487606	1049.568492238989	1435.391742620646	388.589898784019	1197.129867642120	1356.303737426608	503.613413021562	1185.114234358670	1433.892938633676	693.042458596888	1089.099059233203	1492.958766217206	540.496858785188	1169.511215705085	931.672948417644	658.080431690214	1087.347724937458	965.519404098304	396.858770922251	1173.076378134852	724.619982363937	618.392421864771	1092.120728031358	620.447455542482	691.410405173852	1141.772290819858	564.780435688625	595.774699960052	1131.028903901312	476.276500859449	600.188299654941	1157.482218773088	772.392740692215	406.178475320411	1082.641862804984	639.419442002751	330.661141747398	1196.101750572367	583.539310423403	379.149543330767	1215.271283972133	517.865474048990	371.794415357849	1195.237281373977	446.815977725008	355.250437875479	1117.998421147431	327.368341523318	293.208267185123	1198.932356701211	216.463412054631	335.125765693269	1090.385703218941	391.822949604095	609.444125775933	1015.114319350272	295.239615377248	678.248441902386	1030.730549000193	199.840324900106	606.086418624954	874.127013022547	45.074784630614	585.740399153255	1048.032909844929	95.680026673926	610.722053266399	961.731021783275	36.877481048948	654.691225528501	1169.163031789606	41.392035761933	630.664063090960	1099.784585330058	42.634870673169	357.496631052372	1174.408592439078	47.124348193509	278.068221093605	1251.569418550530	117.207065541153	304.598435461729	1382.547562395068	79.765177397899	275.813208148748	842.394325776889	1147.344356189057	347.996178735145	763.198204513004	906.135177341197	418.570522703262	1393.038479449541	1173.531345718772	798.416239655372	1626.291623223835	1246.490227530740	721.138897203738	
21	54.667142857143	924.205232369770	1010.834290246799	604.822004809294	1049.031814367276	1434.486992174404	385.308831034636	1196.946873343612	1355.661541738706	500.067055006732	1185.066914316873	1433.109298143514	689.407784183286	1088.892704482185	1492.230103144051	537.194424716641	1170.290642427361	931.172557681119	655.208727596868	1087.773780109111	964.121883883693	394.003846872212	1172.742188587322	723.848443487934	616.021955450688	1091.276735432038	620.124686251057	689.589201104564	1140.310597323846	563.941884405804	594.183411752623	1128.744570163040	475.430340726453	598.931327069808	1156.330658464827	768.870636705657	402.952712049895	1077.986103426323	636.378362932765	329.786757985131	1191.408034637078	579.887087570060	377.137007251920	1209.238629556062	514.913449665780	370.818789871296	1190.527221928981	444.192934485207	354.492551926403	1114.721096280772	323.446835374002	293.735835026720	1197.426939845394	214.034802271362	335.924024111852	1087.846149463700	391.207250608354	608.403122589750	1012.123410723061	295.209682278848	677.637649944830	1027.126870897378	199.523946658788	605.710596462972	869.834355899365	45.141823515747	585.805730913144	1043.770705309722	95.669650310329	610.708968235537	957.449642363713	36.884606203754	654.725213775214	1164.889265395702	41.329666624644	630.693738392854	1100.211028500123	40.388454945175	359.312654761154	1174.908100433604	44.535978023330	279.973824138373	1251.733433124605	114.739185542889	306.345420981995	1382.772594412706	77.336103373378	278.199659067255	843.390461453679	1145.050906528891	346.611694387498	765.071990390346	903.839503805011	418.809276028162	1396.501316483861	1174.870361741954	791.006442219060	1626.214331023841	1256.311021276534	711.901514670328	
